<svg xmlns="http://www.w3.org/2000/svg" viewBox="0 0 360 185"><g transform="translate(139 -5) scale(.65)"><path d="M60 86C29 79 18 56 19 39C43 36 59 54 60 86" fill="#A78BFA" /><path d="M61 73C38 51 48 22 61 10C79 32 82 53 61 73" fill="#F47294" /><path d="M66 86C68 57 86 44 105 41C105 64 89 79 66 86" fill="#D6336C" /></g><g fill="#C43366"><path transform="translate(27.852000000000004 162) scale(0.124 -0.124)" d="M45 397Q48 432 72 432Q88 432 113 416L107 709Q107 731 119.0 745.5Q131 760 148.0 760.0Q165 760 177.0 746.0Q189 732 189.0 709.0Q189 686 186.5 623.0Q184 560 184 389Q227 374 299 374Q459 374 537 472L532 693Q532 760 576 760Q611 760 618 729Q626 700 626.0 634.5Q626 569 607 437L614 41Q615 10 594 -3Q584 -10 573 -10L552 -3Q531 10 532 41L538 345V377Q500 345 430.5 326.0Q361 307 297.5 307.0Q234 307 184 317L189 41Q190 10 169 -3Q158 -10 148 -10L127 -3Q106 10 107 41L111 334Q45 356 45 397Z" /><path transform="translate(116.512 162) scale(0.124 -0.124)" d="M317 450Q251 450 206.5 400.5Q162 351 148 285Q202 269 269.5 269.0Q337 269 378.0 292.0Q419 315 419.0 355.0Q419 395 391.5 422.5Q364 450 317 450ZM274 206Q222 206 147 221Q153 150 199.5 100.0Q246 50 308.0 50.0Q370 50 410.0 80.5Q450 111 462.5 111.0Q475 111 482.5 103.5Q490 96 490 85Q490 57 432.5 21.0Q375 -15 308 -15Q204 -15 142.5 58.5Q81 132 77 234Q24 251 24 286Q24 309 41 316Q47 318 56.5 318.0Q66 318 83 309Q106 400 166.5 457.5Q227 515 308.5 515.0Q390 515 440.0 470.0Q490 425 490.0 352.5Q490 280 428.0 243.0Q366 206 274 206Z" /><path transform="translate(183.348 162) scale(0.124 -0.124)" d="M149 229 152 41Q152 -10 114 -10Q68 -10 68.0 58.5Q68 127 88 258Q88 300 79.5 375.5Q71 451 71.0 467.0Q71 483 82.0 496.5Q93 510 110.0 510.0Q127 510 138.0 496.5Q149 483 149.0 469.0Q149 455 148.5 424.0Q148 393 148 381Q167 431 210 471Q254 510 297.5 510.0Q341 510 366.5 492.5Q392 475 392.0 453.0Q392 431 381.0 419.0Q370 407 352.5 407.0Q335 407 314 425Q295 444 282 444Q249 444 205.0 372.5Q161 301 149 229Z" /><path transform="translate(233.94 162) scale(0.124 -0.124)" d="M150 710 145 375 150 40Q150 -10 112.0 -10.0Q74 -10 74 40L79 375L74 710Q74 760 112.0 760.0Q150 760 150 710Z" /><path transform="translate(261.716 162) scale(0.124 -0.124)" d="M419 242 416 459Q416 510 454 510Q500 510 500 435Q500 376 479 242Q491 120 491 60Q491 -71 426.5 -150.5Q362 -230 247 -230Q187 -230 131.0 -204.5Q75 -179 75.0 -153.5Q75 -128 98 -128Q108 -128 153.0 -146.5Q198 -165 247 -165Q330 -165 379.5 -105.5Q429 -46 429 50Q429 85 426 118Q352 -10 240 -10Q160 -10 116 49Q72 110 72 195L78 346Q78 377 70.0 420.5Q62 464 62.0 475.0Q62 486 74.5 498.0Q87 510 105 510Q151 510 151 428L143 208Q143 139 172.5 97.0Q202 55 253.0 55.0Q304 55 352 112Q399 170 419 242Z" /></g></svg>